<svg width="94" height="100" viewBox="0 0 94 100" fill="none" xmlns="http://www.w3.org/2000/svg">
<path d="M37.5 1.73747C38.1101 2.4788 38.4838 3.38605 38.573 4.34199C38.6621 5.29793 38.4625 6.25864 38 7.09997C34.3866 13.7342 32.4996 21.1706 32.5125 28.725C32.5125 53.8562 53 74.2062 78.25 74.2062C81.5438 74.2062 84.75 73.8625 87.8313 73.2062C88.7758 73.0017 89.7597 73.0799 90.66 73.4312C91.5603 73.7824 92.3373 74.3911 92.8937 75.1812C93.4812 76.0028 93.7807 76.9954 93.7456 78.0048C93.7106 79.0141 93.343 79.9836 92.7 80.7625C87.798 86.7839 81.6141 91.6356 74.599 94.9636C67.5839 98.2917 59.9145 100.012 52.15 100C23.3375 100 0 76.7875 0 48.1875C0 26.6625 13.2125 8.19997 32.025 0.374974C32.9621 -0.0210774 34.0024 -0.102365 34.9897 0.143321C35.9769 0.389008 36.8578 0.948402 37.5 1.73747V1.73747Z" fill="#ABB8CD"/>
</svg>
