<svg width="1440" height="1024" viewBox="0 0 1440 1024" fill="none" xmlns="http://www.w3.org/2000/svg">
<rect width="1440" height="1024" fill="#131212"/>
<path d="M1040.48 543.71C1040.69 543.092 1041.56 543.092 1041.77 543.71L1042.98 547.342C1043.25 548.141 1043.69 548.866 1044.29 549.461C1044.88 550.056 1045.61 550.504 1046.41 550.77L1050.04 551.979C1050.66 552.185 1050.66 553.059 1050.04 553.265L1046.41 554.475C1045.61 554.741 1044.88 555.189 1044.29 555.785C1043.69 556.38 1043.24 557.106 1042.98 557.904L1041.77 561.534C1041.73 561.67 1041.64 561.788 1041.52 561.871C1041.41 561.955 1041.27 562 1041.13 562C1040.98 562 1040.84 561.955 1040.73 561.871C1040.61 561.788 1040.53 561.67 1040.48 561.534L1039.27 557.902C1039.01 557.104 1038.56 556.379 1037.96 555.784C1037.37 555.189 1036.64 554.741 1035.85 554.475L1032.21 553.265C1032.08 553.221 1031.96 553.135 1031.88 553.019C1031.79 552.904 1031.75 552.765 1031.75 552.622C1031.75 552.48 1031.79 552.341 1031.88 552.225C1031.96 552.11 1032.08 552.024 1032.21 551.979L1035.85 550.77C1036.64 550.504 1037.37 550.055 1037.96 549.461C1038.56 548.866 1039.01 548.14 1039.27 547.342L1040.48 543.71V543.71ZM1033.24 534.15C1033.27 534.068 1033.32 533.998 1033.39 533.948C1033.46 533.898 1033.54 533.871 1033.63 533.871C1033.71 533.871 1033.8 533.898 1033.86 533.948C1033.93 533.998 1033.99 534.068 1034.01 534.15L1034.74 536.328C1035.06 537.3 1035.82 538.061 1036.8 538.385L1038.97 539.111C1039.06 539.138 1039.13 539.19 1039.18 539.259C1039.23 539.328 1039.25 539.412 1039.25 539.497C1039.25 539.583 1039.23 539.666 1039.18 539.735C1039.13 539.805 1039.06 539.857 1038.97 539.883L1036.8 540.609C1036.32 540.769 1035.88 541.038 1035.52 541.395C1035.17 541.752 1034.9 542.187 1034.74 542.666L1034.01 544.845C1033.99 544.926 1033.93 544.997 1033.86 545.047C1033.8 545.097 1033.71 545.124 1033.63 545.124C1033.54 545.124 1033.46 545.097 1033.39 545.047C1033.32 544.997 1033.27 544.926 1033.24 544.845L1032.51 542.666C1032.36 542.187 1032.09 541.752 1031.73 541.395C1031.37 541.038 1030.94 540.769 1030.46 540.609L1028.28 539.883C1028.2 539.857 1028.13 539.805 1028.08 539.735C1028.03 539.666 1028 539.583 1028 539.497C1028 539.412 1028.03 539.328 1028.08 539.259C1028.13 539.19 1028.2 539.138 1028.28 539.111L1030.46 538.385C1030.94 538.226 1031.37 537.957 1031.73 537.6C1032.09 537.243 1032.36 536.807 1032.51 536.328L1033.24 534.15V534.15ZM1046.49 532.183C1046.51 532.129 1046.55 532.083 1046.59 532.05C1046.64 532.018 1046.69 532 1046.75 532C1046.81 532 1046.86 532.018 1046.91 532.05C1046.96 532.083 1046.99 532.129 1047.01 532.183L1047.49 533.634C1047.71 534.283 1048.22 534.791 1048.86 535.007L1050.32 535.49C1050.37 535.509 1050.42 535.544 1050.45 535.59C1050.48 535.636 1050.5 535.691 1050.5 535.747C1050.5 535.804 1050.48 535.859 1050.45 535.905C1050.42 535.951 1050.37 535.986 1050.32 536.004L1048.86 536.488C1048.54 536.594 1048.25 536.774 1048.02 537.012C1047.78 537.25 1047.6 537.541 1047.49 537.86L1047.01 539.312C1046.99 539.365 1046.96 539.411 1046.91 539.444C1046.86 539.477 1046.81 539.494 1046.75 539.494C1046.69 539.494 1046.64 539.477 1046.59 539.444C1046.55 539.411 1046.51 539.365 1046.49 539.312L1046.01 537.86C1045.9 537.541 1045.73 537.25 1045.49 537.012C1045.25 536.774 1044.96 536.594 1044.64 536.488L1043.19 536.004C1043.14 535.986 1043.09 535.951 1043.06 535.905C1043.02 535.859 1043.01 535.804 1043.01 535.747C1043.01 535.691 1043.02 535.636 1043.06 535.59C1043.09 535.544 1043.14 535.509 1043.19 535.49L1044.64 535.007C1045.29 534.791 1045.8 534.283 1046.01 533.634L1046.49 532.185V532.183Z" fill="#ABB8CD"/>
<path d="M441.483 771.71C441.69 771.092 442.563 771.092 442.77 771.71L443.979 775.342C444.245 776.141 444.694 776.866 445.289 777.461C445.884 778.056 446.61 778.504 447.408 778.77L451.038 779.979C451.657 780.185 451.657 781.059 451.038 781.265L447.406 782.475C446.608 782.741 445.883 783.189 445.288 783.785C444.693 784.38 444.245 785.106 443.979 785.904L442.77 789.534C442.725 789.67 442.639 789.788 442.524 789.871C442.408 789.955 442.269 790 442.126 790C441.984 790 441.845 789.955 441.729 789.871C441.614 789.788 441.528 789.67 441.483 789.534L440.274 785.902C440.008 785.104 439.56 784.379 438.965 783.784C438.37 783.189 437.645 782.741 436.846 782.475L433.215 781.265C433.079 781.221 432.961 781.135 432.877 781.019C432.794 780.904 432.749 780.765 432.749 780.622C432.749 780.48 432.794 780.341 432.877 780.225C432.961 780.11 433.079 780.024 433.215 779.979L436.846 778.77C437.645 778.504 438.37 778.055 438.965 777.461C439.56 776.866 440.008 776.14 440.274 775.342L441.483 771.71V771.71ZM434.24 762.15C434.267 762.068 434.319 761.998 434.388 761.948C434.458 761.898 434.541 761.871 434.626 761.871C434.712 761.871 434.795 761.898 434.865 761.948C434.934 761.998 434.986 762.068 435.013 762.15L435.738 764.328C436.063 765.3 436.824 766.061 437.795 766.385L439.974 767.111C440.055 767.138 440.126 767.19 440.176 767.259C440.226 767.328 440.253 767.412 440.253 767.497C440.253 767.583 440.226 767.666 440.176 767.735C440.126 767.805 440.055 767.857 439.974 767.883L437.795 768.609C437.316 768.769 436.881 769.038 436.524 769.395C436.167 769.752 435.898 770.187 435.738 770.666L435.013 772.845C434.986 772.926 434.934 772.997 434.865 773.047C434.795 773.097 434.712 773.124 434.626 773.124C434.541 773.124 434.458 773.097 434.388 773.047C434.319 772.997 434.267 772.926 434.24 772.845L433.515 770.666C433.355 770.187 433.086 769.752 432.729 769.395C432.372 769.038 431.937 768.769 431.458 768.609L429.279 767.883C429.198 767.857 429.127 767.805 429.077 767.735C429.027 767.666 429 767.583 429 767.497C429 767.412 429.027 767.328 429.077 767.259C429.127 767.19 429.198 767.138 429.279 767.111L431.458 766.385C431.937 766.226 432.372 765.957 432.729 765.6C433.086 765.243 433.355 764.807 433.515 764.328L434.24 762.15V762.15ZM447.495 760.183C447.513 760.129 447.548 760.083 447.594 760.05C447.64 760.018 447.695 760 447.751 760C447.808 760 447.863 760.018 447.909 760.05C447.955 760.083 447.99 760.129 448.008 760.183L448.492 761.634C448.708 762.283 449.216 762.791 449.865 763.007L451.316 763.49C451.369 763.509 451.416 763.544 451.448 763.59C451.481 763.636 451.499 763.691 451.499 763.747C451.499 763.804 451.481 763.859 451.448 763.905C451.416 763.951 451.369 763.986 451.316 764.004L449.865 764.488C449.545 764.594 449.254 764.774 449.016 765.012C448.778 765.25 448.598 765.541 448.492 765.86L448.008 767.312C447.99 767.365 447.955 767.411 447.909 767.444C447.863 767.477 447.808 767.494 447.751 767.494C447.695 767.494 447.64 767.477 447.594 767.444C447.548 767.411 447.513 767.365 447.495 767.312L447.011 765.86C446.904 765.541 446.725 765.25 446.487 765.012C446.249 764.774 445.958 764.594 445.638 764.488L444.189 764.004C444.136 763.986 444.089 763.951 444.057 763.905C444.024 763.859 444.006 763.804 444.006 763.747C444.006 763.691 444.024 763.636 444.057 763.59C444.089 763.544 444.136 763.509 444.189 763.49L445.64 763.007C446.289 762.791 446.797 762.283 447.013 761.634L447.495 760.185V760.183Z" fill="#ABB8CD"/>
<path d="M605.483 377.71C605.69 377.092 606.563 377.092 606.77 377.71L607.979 381.342C608.245 382.141 608.694 382.866 609.289 383.461C609.884 384.056 610.61 384.504 611.408 384.77L615.038 385.979C615.657 386.185 615.657 387.059 615.038 387.265L611.406 388.475C610.608 388.741 609.883 389.189 609.288 389.785C608.693 390.38 608.245 391.106 607.979 391.904L606.77 395.534C606.725 395.67 606.639 395.788 606.524 395.871C606.408 395.955 606.269 396 606.126 396C605.984 396 605.845 395.955 605.729 395.871C605.614 395.788 605.528 395.67 605.483 395.534L604.274 391.902C604.008 391.104 603.56 390.379 602.965 389.784C602.37 389.189 601.645 388.741 600.846 388.475L597.215 387.265C597.079 387.221 596.961 387.135 596.877 387.019C596.794 386.904 596.749 386.765 596.749 386.622C596.749 386.48 596.794 386.341 596.877 386.225C596.961 386.11 597.079 386.024 597.215 385.979L600.846 384.77C601.645 384.504 602.37 384.055 602.965 383.461C603.56 382.866 604.008 382.14 604.274 381.342L605.483 377.71V377.71ZM598.24 368.15C598.267 368.068 598.319 367.998 598.388 367.948C598.458 367.898 598.541 367.871 598.626 367.871C598.712 367.871 598.795 367.898 598.865 367.948C598.934 367.998 598.986 368.068 599.013 368.15L599.738 370.328C600.063 371.3 600.824 372.061 601.795 372.385L603.974 373.111C604.055 373.138 604.126 373.19 604.176 373.259C604.226 373.328 604.253 373.412 604.253 373.497C604.253 373.583 604.226 373.666 604.176 373.735C604.126 373.805 604.055 373.857 603.974 373.883L601.795 374.609C601.316 374.769 600.881 375.038 600.524 375.395C600.167 375.752 599.898 376.187 599.738 376.666L599.013 378.845C598.986 378.926 598.934 378.997 598.865 379.047C598.795 379.097 598.712 379.124 598.626 379.124C598.541 379.124 598.458 379.097 598.388 379.047C598.319 378.997 598.267 378.926 598.24 378.845L597.515 376.666C597.355 376.187 597.086 375.752 596.729 375.395C596.372 375.038 595.937 374.769 595.458 374.609L593.279 373.883C593.198 373.857 593.127 373.805 593.077 373.735C593.027 373.666 593 373.583 593 373.497C593 373.412 593.027 373.328 593.077 373.259C593.127 373.19 593.198 373.138 593.279 373.111L595.458 372.385C595.937 372.226 596.372 371.957 596.729 371.6C597.086 371.243 597.355 370.807 597.515 370.328L598.24 368.15V368.15ZM611.495 366.183C611.513 366.129 611.548 366.083 611.594 366.05C611.64 366.018 611.695 366 611.751 366C611.808 366 611.863 366.018 611.909 366.05C611.955 366.083 611.99 366.129 612.008 366.183L612.492 367.634C612.708 368.283 613.216 368.791 613.865 369.007L615.316 369.49C615.369 369.509 615.416 369.544 615.448 369.59C615.481 369.636 615.499 369.691 615.499 369.747C615.499 369.804 615.481 369.859 615.448 369.905C615.416 369.951 615.369 369.986 615.316 370.004L613.865 370.488C613.545 370.594 613.254 370.774 613.016 371.012C612.778 371.25 612.598 371.541 612.492 371.86L612.008 373.312C611.99 373.365 611.955 373.411 611.909 373.444C611.863 373.477 611.808 373.494 611.751 373.494C611.695 373.494 611.64 373.477 611.594 373.444C611.548 373.411 611.513 373.365 611.495 373.312L611.011 371.86C610.904 371.541 610.725 371.25 610.487 371.012C610.249 370.774 609.958 370.594 609.638 370.488L608.189 370.004C608.136 369.986 608.089 369.951 608.057 369.905C608.024 369.859 608.006 369.804 608.006 369.747C608.006 369.691 608.024 369.636 608.057 369.59C608.089 369.544 608.136 369.509 608.189 369.49L609.64 369.007C610.289 368.791 610.797 368.283 611.013 367.634L611.495 366.185V366.183Z" fill="#ABB8CD"/>
<g clip-path="url(#clip0_80_340)">
<path d="M421.5 186.042C421.866 186.487 422.09 187.032 422.144 187.605C422.197 188.179 422.078 188.755 421.8 189.26C419.632 193.241 418.5 197.702 418.508 202.235C418.508 217.314 430.8 229.524 445.95 229.524C447.926 229.524 449.85 229.317 451.699 228.924C452.265 228.801 452.856 228.848 453.396 229.059C453.936 229.269 454.402 229.635 454.736 230.109C455.089 230.602 455.268 231.197 455.247 231.803C455.226 232.408 455.006 232.99 454.62 233.457C451.679 237.07 447.968 239.981 443.759 241.978C439.55 243.975 434.949 245.007 430.29 245C413.002 245 399 231.072 399 213.912C399 200.997 406.928 189.92 418.215 185.225C418.777 184.987 419.401 184.939 419.994 185.086C420.586 185.233 421.115 185.569 421.5 186.042V186.042ZM417.217 189.916C412.877 192.244 409.249 195.705 406.718 199.93C404.187 204.155 402.848 208.987 402.844 213.912C402.844 228.987 415.14 241.197 430.29 241.197C433.918 241.204 437.511 240.49 440.861 239.099C444.212 237.707 447.253 235.665 449.809 233.09C448.545 233.247 447.259 233.326 445.95 233.326C428.663 233.326 414.664 219.399 414.664 202.239C414.664 197.862 415.571 193.696 417.217 189.916V189.916Z" fill="#ABB8CD"/>
<path d="M439.477 196.805C439.531 196.643 439.635 196.501 439.774 196.401C439.912 196.301 440.079 196.247 440.25 196.247C440.421 196.247 440.588 196.301 440.726 196.401C440.865 196.501 440.969 196.643 441.022 196.805L442.474 201.163C443.122 203.105 444.645 204.628 446.587 205.276L450.945 206.728C451.107 206.781 451.249 206.885 451.349 207.024C451.449 207.162 451.503 207.329 451.503 207.5C451.503 207.671 451.449 207.838 451.349 207.976C451.249 208.115 451.107 208.219 450.945 208.273L446.587 209.724C445.629 210.043 444.759 210.581 444.045 211.295C443.331 212.009 442.793 212.879 442.474 213.838L441.022 218.195C440.969 218.357 440.865 218.499 440.726 218.599C440.588 218.699 440.421 218.753 440.25 218.753C440.079 218.753 439.912 218.699 439.774 218.599C439.635 218.499 439.531 218.357 439.477 218.195L438.026 213.838C437.707 212.879 437.169 212.009 436.455 211.295C435.741 210.581 434.871 210.043 433.912 209.724L429.555 208.273C429.393 208.219 429.251 208.115 429.151 207.976C429.051 207.838 428.997 207.671 428.997 207.5C428.997 207.329 429.051 207.162 429.151 207.024C429.251 206.885 429.393 206.781 429.555 206.728L433.912 205.276C434.871 204.957 435.741 204.419 436.455 203.705C437.169 202.991 437.707 202.121 438.026 201.163L439.477 196.805V196.805ZM450.986 185.371C451.023 185.264 451.093 185.172 451.185 185.106C451.277 185.041 451.387 185.006 451.5 185.006C451.613 185.006 451.723 185.041 451.815 185.106C451.907 185.172 451.977 185.264 452.014 185.371L452.981 188.274C453.412 189.571 454.429 190.588 455.726 191.019L458.629 191.986C458.736 192.023 458.828 192.093 458.894 192.185C458.959 192.277 458.994 192.387 458.994 192.5C458.994 192.613 458.959 192.723 458.894 192.815C458.828 192.907 458.736 192.977 458.629 193.014L455.726 193.981C455.087 194.194 454.506 194.553 454.029 195.029C453.553 195.506 453.194 196.087 452.981 196.726L452.014 199.629C451.977 199.736 451.907 199.828 451.815 199.894C451.723 199.959 451.613 199.994 451.5 199.994C451.387 199.994 451.277 199.959 451.185 199.894C451.093 199.828 451.023 199.736 450.986 199.629L450.019 196.726C449.806 196.087 449.447 195.506 448.971 195.029C448.494 194.553 447.913 194.194 447.274 193.981L444.371 193.014C444.264 192.977 444.172 192.907 444.106 192.815C444.041 192.723 444.006 192.613 444.006 192.5C444.006 192.387 444.041 192.277 444.106 192.185C444.172 192.093 444.264 192.023 444.371 191.986L447.274 191.019C448.571 190.588 449.587 189.571 450.019 188.274L450.986 185.375V185.371Z" fill="#ABB8CD"/>
</g>
<defs>
<clipPath id="clip0_80_340">
<rect width="60" height="60" fill="white" transform="translate(399 185)"/>
</clipPath>
</defs>
</svg>
